<?xml version="1.0" encoding="utf-8"?>
<!-- Generator: Adobe Illustrator 22.1.0, SVG Export Plug-In . SVG Version: 6.00 Build 0)  -->
<svg version="1.1" id="Ebene_1" xmlns="http://www.w3.org/2000/svg" xmlns:xlink="http://www.w3.org/1999/xlink" x="0px" y="0px"
	 viewBox="0 0 32 32" style="enable-background:new 0 0 32 32;" xml:space="preserve">
<style type="text/css">
	.st0{fill:#E5007E;}
</style>
<g>
	<path class="st0" d="M4,15c0,0.1,0,0.3,0.1,0.4c0,0.1,0.1,0.2,0.2,0.3c0,0,0,0,0,0l6,6c0.4,0.4,1,0.4,1.4,0c0.4-0.4,0.4-1,0-1.4
		L7.4,16H27c0.6,0,1-0.4,1-1s-0.4-1-1-1H7.4l4.3-4.3c0.4-0.4,0.4-1,0-1.4c-0.4-0.4-1-0.4-1.4,0l-6,6c0,0,0,0,0,0
		c-0.1,0.1-0.2,0.2-0.2,0.3C4,14.7,4,14.9,4,15L4,15C4,15,4,15,4,15z"/>
</g>
</svg>
