<svg xmlns="http://www.w3.org/2000/svg" viewBox="0 0 749.09 416"><defs><style>.cls-1{fill:#f29100;}</style></defs><title>Element 5</title><g id="Ebene_2" data-name="Ebene 2"><g id="Ebene_1-2" data-name="Ebene 1"><path class="cls-1" d="M743.18,38.46c-.46-2.53-.9-5.08-1.34-7.62-.33-3.15-.64-6.31-.91-9.47h-.69Q738.49,10.7,736.87,0H.12Q.5,3.21.86,6.42H0Q1,12.21,2,18c.07.81.15,1.61.22,2.42h.19C10,65.68,14.94,111.74,28.12,155.13c30.43,100.16,97.11,171.46,177.47,234.36,57.55,45.05,173.87,19.24,173.87,18.37,38.52-6.4,77.34-11.8,114.18-23.73,97-31.42,166.07-100.26,227-183.24C760.17,147,749,93.5,742.66,38.46Z"/></g></g></svg>