<svg xmlns="http://www.w3.org/2000/svg" viewBox="0 0 354.45 327.37"><defs><style>.cls-1{fill:#4a017d;}.cls-2{fill:#94b422;}</style></defs><title>Element 3</title><g id="Ebene_2" data-name="Ebene 2"><g id="Ebene_1-2" data-name="Ebene 1"><path class="cls-1" d="M303.49,263.74c13.23,14.85,13.58,20.56,1.64,38.47-1.6,2.4-4.76,3.77-7.19,5.62-1.8-2.57-5.34-5.33-5.1-7.69,1.27-12.34,3.5-24.58,5.4-36.86Z"/><path class="cls-1" d="M241.31,195.32c-.62-6.64-3.15-13.85-1.38-19.78,2.18-7.3,7.94-13.54,12.15-20.24,3.07,2.57,8.55,4.94,8.79,7.76C262,176.33,255.74,186.73,241.31,195.32Z"/><path class="cls-1" d="M196.75,180.66c15.12,8.13,14.06,20.24-3.14,44.29C182.63,217.18,183.72,198.48,196.75,180.66Z"/><path class="cls-1" d="M219.38,284.46c-1.22-4.87-3.73-9.84-3.35-14.59a67.22,67.22,0,0,1,5.22-21c1.48-3.41,6.27-5.39,9.56-8,2.3,4.19,7.26,9.06,6.4,12.45-2.68,10.55-7.55,20.55-11.58,30.76Z"/><path class="cls-1" d="M214.49,105.13c-3.75,7.73-6.57,14.86-10.62,21.21-1.61,2.54-5.94,3.35-9,4.95-1.57-3.27-4.85-6.81-4.39-9.77,1.15-7.45,3.11-15.1,6.53-21.74,1.73-3.35,7.35-4.68,11.21-6.93Z"/><path class="cls-1" d="M255,229.91c-11.88-2.71-23.88-5-35.55-8.44-2.43-.72-3.64-5.56-5.42-8.5,3.1-1.66,6.41-5,9.27-4.67a115.73,115.73,0,0,1,25.24,5.79c4.05,1.48,7,6.08,10.38,9.26Z"/><path class="cls-1" d="M297.42,226.52l-22.09,22.85c-1.76-4.68-6.24-10.65-4.74-13.79,3.72-7.81-2.55-23.16,13.6-22C288.13,213.83,291.62,220.59,297.42,226.52Z"/><path class="cls-1" d="M201,165.58c-11.79-2.8-23.68-5.29-35.31-8.65-2.35-.68-3.76-4.63-5.6-7.07,2.89-2.05,6-6.14,8.63-5.81a154.39,154.39,0,0,1,29.36,6.41c3,1,4.51,6.41,6.7,9.8Z"/><path class="cls-1" d="M152.84,248l21.5,18.4c-3.24,2.61-6.36,7.28-9.72,7.46-10.64.57-25.46-10.51-23.38-16.72C142.22,254.21,146.83,252.52,152.84,248Z"/><path class="cls-1" d="M244.81,263.64c12.38,1.75,22.79,2.81,33,5,2,.42,4.12,5.22,4.14,8,0,1.91-3.19,4.61-5.53,5.64C266.68,286.59,250.79,278.7,244.81,263.64Z"/><path class="cls-1" d="M159.63,192.22c-11.14,6.06-29.69,3.35-34-4-1.29-2.2-1.12-7.81.15-8.48,4.11-2.16,10.23-5.09,13.43-3.47C146.23,179.82,151.94,186,159.63,192.22Z"/><path class="cls-1" d="M288.57,194.17l-18.76-17c4.36-1.93,8.82-5.67,13-5.4,8.09.51,19-.41,19.63,11.61C302.62,186.15,295.16,189.27,288.57,194.17Z"/><path class="cls-1" d="M303.26,233.14c9.93.62,20,.59,29.67,2.37,2.16.39,4.5,7.25,4.17,10.9-.18,2.1-6.3,5.94-8.44,5.21-9.34-3.19-18.2-7.78-27.23-11.86Z"/><path class="cls-1" d="M324.48,131c-2.94,8.25-4.63,14.81-7.65,20.69-1.44,2.8-5.39,4.32-8.2,6.43-1-3.73-3.33-7.67-2.75-11.13a61.64,61.64,0,0,1,6-17.56c1.38-2.72,5.13-4.22,7.81-6.28Z"/><path class="cls-1" d="M260.15,142.55l-17.6-15.65c3.88-1.65,8.53-5.54,11.49-4.52,7.3,2.51,13.84,7.27,20.68,11.12Z"/><path class="cls-1" d="M274.85,110.7c1.72-8.47,3-17.07,5.46-25.32.67-2.26,4.79-3.5,7.33-5.21,1.88,2.89,5.92,6.48,5.25,8.56-2.74,8.49-6.91,16.51-10.56,24.71Z"/><path class="cls-1" d="M188.68,304.84c10.58-10.09,26.14-10.27,32.39-2.17,1.38,1.79,2.05,6.3.92,7.41-2.05,2-6,3.86-8.59,3.23C205.68,311.38,198.27,308.23,188.68,304.84Z"/><path class="cls-1" d="M329.14,113.65l-14.35-13.29c4-2.56,9.19-8.11,11.7-7.08,5.82,2.39,10.33,8,15.37,12.25Z"/><path class="cls-1" d="M246.34,326.61c-.18-7.66-.89-15.38-.11-22.93.16-1.56,7.29-4.45,8.77-3.38,2.9,2.11,6.2,7.06,5.53,10-1.38,6-5.25,11.43-8.09,17.1Z"/><path class="cls-1" d="M201.17,267.64c-5-6.16-8.75-10.75-12.49-15.33,3.31-1.79,7.95-5.91,9.66-4.93,5.27,3,9.41,8,14,12.21Z"/><path class="cls-1" d="M228.17,82.21C234.33,68.78,242,70,249.31,74.88c1.83,1.21,1.45,5.76,2.08,8.78Z"/><path class="cls-1" d="M321.89,218.72c-1.12-7.6-2.61-15.19-3-22.84-.08-1.5,3.77-4,6.13-4.54,1.32-.28,4.77,2.65,4.78,4.15.05,7.6-.71,15.21-1.19,22.81Z"/><path class="cls-1" d="M165.18,217l-9.59-13.14c3.17-2,7.81-6.36,9.23-5.49,4.71,2.9,8.27,7.68,12.27,11.73Z"/><text/><path class="cls-2" d="M155.79,78.52c0,.09,0,.19.07.29v.06h0c.28,1.12.52,2.27.87,3.34a13,13,0,0,0,2.62,4.59l0,.11h0c.26.29.52.57.79.84,1,1,1.81.42,2.68.16v-.07a7.8,7.8,0,0,0,1.62-.84c1.34-1,2.12-2.88,2.74-5.1a8.33,8.33,0,0,0-.26-4.15h0a1.8,1.8,0,0,0-.05-.19c0-.08,0-.16,0-.23h0a23,23,0,0,0-.85-3.27,20.33,20.33,0,0,0-3.5-5.53c-.77-.92-1.54-.57-2.24-.31v-.06a12.74,12.74,0,0,0-2,1c-1.34,1-2.13,2.89-2.74,5.11a8.5,8.5,0,0,0,.27,4.22Zm.8-4c.52-1.88,1.19-3.48,2.32-4.33a11.37,11.37,0,0,1,1.74-.88v0l.51-.17c2,2,4.5,8.44,3.52,11.47-1.07,3.33-6,1.57-6,1.57l-1.12-1.08c-.29-.88-.49-1.83-.72-2.76h0v-.05l-.06-.24h0A7.35,7.35,0,0,1,156.59,74.5Z"/><path class="cls-2" d="M207.38,67.63c-11.26-39.07-31-59.5-46.81-62.61C151.11,4.14,141.36-.67,127,30.63c-10.1,25.19,1.42,59.18,16.2,88.26,13.23,26,37.53,35.45,45.59,29.58S223.2,122.53,207.38,67.63ZM164.45,7.8,165,8l-.13.19ZM148.57,67.39c5.65-2.79,16.25-1.71,20,3a41,41,0,0,1,1.62,7.15A20.35,20.35,0,0,1,164,90.65c-.35.27-.71.53-1.06.78a61.36,61.36,0,0,1-6.47,3.9,206.91,206.91,0,0,1-19.2,7.91,174.58,174.58,0,0,1-9.86-29.49C137.69,71.07,145.94,68.69,148.57,67.39Zm-3.09,53.09Zm-7.3-15.19v0h0Zm51.95,38.93c-.41-.37-1-.39-1.86-.05-.35.13-.84.31-1.11.17-1.22-.65-2.27-.15-3.28.41a2.46,2.46,0,0,1-2.1.13,6.93,6.93,0,0,0-1.82-.22c-1.46,0-2.92.07-4.38,0-1.05,0-3.17-.19-3.18-.14-.25,0-3.32-.7-4.94-1A58.43,58.43,0,0,1,148.3,125.1c5.13,7.14,13.26,13.77,17.88,13.83l-19.65-19.32c1.74-3.51.58-7.38-3.56-11.66q1,3.6,2.06,7.2l-.62.24q-2.57-5.2-5.12-10.41l.28-.22c4.5-1.6,9-3.33,13.37-5.24,8.44-2.26,15.61-8.18,17.34-13.14,4.8-8.58.47-21.9-4.19-24.6.31,1.42.69,2.8,1.1,4.16C162,63,153.24,63.48,148,66a53,53,0,0,1-7.14,2.39c-.91-.65-1.59-1.19-2.35-1.77l-2.19-3.08-7.41-15.22-.66.23c.45,1.3.82,2.64,1.37,3.9.72,1.64,1.59,3.22,2.4,4.82l.41.79-4.59-6.47L126,52.79c4,5.61,7.85,10.92,11.82,16.49l-3.7,1a5.85,5.85,0,0,0-.64-2c-.17-.28-2.08-1.36-2.27-1.62-1.81-2.5-2.54-5.82-4.35-8.31-.63-.87-1.27-1.73-1.92-2.59a68.61,68.61,0,0,1,.62-12.9l.3,4.13.88,0-.6-7.31A50.7,50.7,0,0,1,127.6,34c-.23,3.21-.45,6.43-.67,9.64l1.71.57,1-14-.42-.14c1-2.27,2.08-4.36,3.08-6.23a16.74,16.74,0,0,0-.43,3.81h-.09c.17,2.09.29,4.19.51,6.28q.58,5.38,1.28,10.77c.4,3.06.84,6.12,1.37,9.16.08.5.73.89,1.11,1.33a4.79,4.79,0,0,0,.35-1.65c-1-7.37-2.14-14.74-3.22-22.11,0-.14,0-.27,0-.41.19-3.4.37-6.56.55-9.66,11-19,19-15.42,26.87-14.68.71.15,1.44.34,2.17.56.74.91,1.45,1.85,2.27,2.68,1.25,1.28,2.62,2.45,4,3.65,2.52,2.28,5,4.57,7.58,6.81a3.68,3.68,0,0,0,1.2.48l.18-.37-8.69-8.2,8.13,5.63.72-1C187.53,26,196.83,41,203.55,62.26c-5.68-13-13.7-24.78-21.42-36.57l25.69,53.05C215.73,119.05,198.89,137.07,190.13,144.22Z"/><path class="cls-2" d="M216.19,114.65c7.95-27.32-1.81-57-18.85-85.54C181,1.62,152.16-4.47,142.7,2.86c-5.45,4.22-17,13-21.93,31.05-3,7.35-2,15.33-11.53,21.27-2.13,1.42-60.62,18.57-85.88,24.89l-.47.31h0C16.79,83,11,85.47,6.05,90.79.8,96.43-.38,103.71.1,113.85.86,130,12.35,143.72,24.33,143c3.19-.2,2.85.19,6-.2,0,.06.4,0,1.1-.17h.06c1.79-.43,5.47-1.46,9.64-2.66l48.82,68,1.35-.75c-.25.26-.49.54-.75.8,7.61-3.88,14.22-8.93,17.69-18.25-2.45,2.53-5.14,4.77-7.48,7.06a60.66,60.66,0,0,0,8.06-11.56l.17-.08c-2.19-3.83-4.21-7.76-6.62-11.47-3.14-4.84-6.57-9.52-9.91-14.25-6.31-8.94-12.62-17.89-19-26.78a6.13,6.13,0,0,0-1.07-1.09c8.84-1.84,17.61-3.41,25.78-4.67l17.36-1.25c0-.36-.07-.72-.11-1.08,12.67-1.43,22.06-1.81,25-1a106.71,106.71,0,0,0,8.34,12.15,47.82,47.82,0,0,0,10.77,11c6.56,5.25,13.25,8.16,19.76,8.79,10,0,16.79,1,29.69-24.16l7.74-12.85C216.37,118.27,216.33,116.22,216.19,114.65ZM118.72,58.93c-.19-1-.39-2.07-.58-3.1l.39-.16C118.57,56.74,118.64,57.83,118.72,58.93ZM58,79.25c-5.15,8.8-6.41,24.66-2.88,29.41-.1-2.19-.08-4.21,0-6.13C57,110.34,62,119,72.3,128.59c-7.29,1.93-17.36,4.77-24.92,6.88a28.66,28.66,0,0,0,6.46-3.26,10.06,10.06,0,0,0-2.47.2c-1.65.53-3.22,1.3-4.86,1.86-6.64,2.28-13.31,4.5-20,6.78a4.14,4.14,0,0,0-.75.34c-10-3.7-19.16-10.3-22.89-20.57a35.78,35.78,0,0,1-1.2-7.59l0-.88L7.87,97.77l1.39.46c-1.87,8.25-.59,3.3-2.47,11.55l3.23.47c2.72-11.83,5.61-9.84,4.36-23.16a79.06,79.06,0,0,1,9.34-3.25c2.24-.52,4.61-1.1,7.09-1.73.23.51.35.77.42.76,9.34-2,18.67-4.17,28-6.29C58.8,77.45,58.39,78.34,58,79.25ZM25.3,141.58h-.44l.64-.05,0,0Zm-16-8.16a39.17,39.17,0,0,0,13.64,8.11C17.9,141,13.07,138,9.3,133.42Zm35.5,5.44c.25.43.52.86.78,1.3A9.15,9.15,0,0,0,44,139.1Zm60.35,48.28a15.84,15.84,0,0,0,.75-3.92l.92,1.36A30.34,30.34,0,0,1,105.15,187.14ZM74.56,137.57c-1.11-1.12-3.15-4.68-3.69-4.27,2.76,3.67,7.84,13.41,10.6,17.08l1.2-1q2.67,3.91,5.36,7.82c1,5.36,4,9.67,7.22,13.83l1.35-.68-1.23-2.45L105,182a15.93,15.93,0,0,0-3.18,9.21c-3.74,4.17-7.93,8-10.71,12.91-.12-.22-.24-.44-.35-.67a14.69,14.69,0,0,0-1-5.11c-2.56-4.95-5-11.2-10.68-13.9-2.57-3.49-5.22-6.93-7.82-10.4q-5-6.72-10.08-13.45c3.13,3.7,6.3,7.41,9.24,11,2.29,2.81,5.5,5.24,8.29,7.85-1.71-3-2.93-6-5.22-8.85-8.73-10.79-17.76-21.53-26.7-32.28l8.78-2.56-.17-.27c5-1.27,10.17-2.45,15.29-3.54Zm61.7-21.44c-5.65-10.21-3.15-5.84-10.1-18.36l-.71.17c1.32,2.74,2.56,5.52,4,8.22,1.87,3.52,3.89,7,5.87,10.47l.12.11a14.81,14.81,0,0,1-7.86,3.09c-2.38.11-4.5.23-6.44.35l.13,0c-8.61-3.13-24.87-.28-28.06,3.85l2.3-.31c-4,.77-8.77,1.71-15,2.87-.64.12-1.53.32-2.6.58a41.22,41.22,0,0,1-5.22-3.38l-11.93-18.5a28.65,28.65,0,0,0,3,9.58c-8.52-11.4-11.41-27.55,4.81-43.28C85.75,66.49,102,61.34,111.21,58.25a4.47,4.47,0,0,0-.5,1,3.62,3.62,0,0,0,1.16-.16l3.79-2.31.78-.27c-.69,1.89-1.39,1.6-.7,6.09.73-2.79.88-3.16,1.43-5.18-1.2,8.94,2,21.81,5.82,24.61.77,2.74,1.62,5.56,2.61,8.49l.33.93c-.88-2.27-1.74-4.49-2.59-6.7-.14,3,1.37,6.74,3.12,8.21a187.6,187.6,0,0,0,9.86,23.18Zm42.44,37.74a31.32,31.32,0,0,1-12-4l.23,0a130.38,130.38,0,0,1-20.79-20.17c-6.9-10-13.35-23.23-18.89-39.71-19.48-58,6.87-78.46,15.84-85.58s36.4-1,52.14,25.93c17.56,30.1,27.16,61.38,16.42,89.62C196.22,155.28,189.45,153.93,178.7,153.87Z"/><path class="cls-1" d="M354.45,238.74c-2.3,1.13-5.11,3.22-5.4,4.76-1.54,8.19-1.44,16.69-2,25.07l7.33,1.56,0-.05Z"/></g></g></svg>