<svg xmlns="http://www.w3.org/2000/svg" viewBox="0 0 385 160.08"><defs><style>.cls-1{fill:#01a0c6;}</style></defs><title>Element 2</title><g id="Ebene_2" data-name="Ebene 2"><g id="Ebene_1-2" data-name="Ebene 1"><path class="cls-1" d="M385,0c-42.61,5.81-83.61,14-121.95,22.12-33.35,7.07-68.64,15.57-100.82,29.67C122,69.43,82.79,91.2,44.9,112.26q-7.78,4.33-15.58,8.65C21.56,125.2,15.24,132,9.13,138.59c-2.74,2.94-5.56,6-8.44,8.71A2.22,2.22,0,0,0,.28,150l5,9a2.08,2.08,0,0,0,.19.29,2.21,2.21,0,0,0,2.19.79c3.94-.84,8-1.59,11.91-2.32,8.57-1.59,17.44-3.23,25.88-5.93,27.27-8.72,54.39-19.2,80.61-29.34,49.3-19.06,100.28-38.77,154.28-47.51,15.87-2.57,31.94-5.4,47.48-8.14,18.88-3.33,37.94-6.69,57.15-9.66Z"/></g></g></svg>