<svg xmlns="http://www.w3.org/2000/svg" viewBox="0 0 164.31 229.24"><defs><style>.cls-1{fill:#01a0c6;}</style></defs><title>Element 1</title><g id="Ebene_2" data-name="Ebene 2"><g id="Ebene_1-2" data-name="Ebene 1"><path class="cls-1" d="M153.77,96.32C141.25,87.46,128.41,79,115.36,71,77,47.26,38.56,23.48,0,0V19.1l160.74,93.07,3.57-4.1C160.84,104.1,158,99.28,153.77,96.32Z"/><path class="cls-1" d="M0,42.75v20q66.95,37.8,133.91,75.56c5.65,3.18,12.13,4.88,20.72,8.24C150.29,132.25,69,80.24,0,42.75Z"/><path class="cls-1" d="M111.68,152c-17.08-10.46-35.79-18.24-53.45-27.8C38.76,113.63,19.39,102.92,0,92.25v15.69l133.46,72.61q1.84-2.46,3.7-4.91C128.74,167.62,121.37,157.89,111.68,152Z"/><path class="cls-1" d="M0,130.45V149.3q52.22,27.31,104.74,54c6.94,3.52,15.7,3.47,23.61,5.08l1.11-7.55Z"/><path class="cls-1" d="M88.39,211.48Q44.27,189,0,166.73v19c49.36,24.79,97.26,45.24,108.63,43.44C100.65,222,95.39,215.05,88.39,211.48Z"/></g></g></svg>