<svg xmlns="http://www.w3.org/2000/svg" viewBox="0 0 207 387.21"><defs><style>.cls-1{fill:#f0047f;}</style></defs><title>Element 6</title><g id="Ebene_2" data-name="Ebene 2"><g id="Ebene_1-2" data-name="Ebene 1"><path class="cls-1" d="M189,0c-7.72-.53-21,21.92-25,35.82C153.23,73,146.09,111.3,137.51,149.15l-9.42,4.3c-15-14.52-30.69-28.41-44.85-43.72-20.56-22.22-39.88-45.58-60-68.23C16.05,33.39,8.22,28.28,0,25.39V304.15c14.77,22.44,31.5,44,50.67,62.14,38.22,36.27,82.32,24,97.52-26.34,18.84-62.42,35.72-125.63,49.15-189.41,7.56-35.91,7.26-73.61,8.93-110.58C207,24.23,211,1.52,189,0Z"/></g></g></svg>