<svg xmlns="http://www.w3.org/2000/svg" viewBox="0 0 923.85 398"><defs><style>.cls-1{fill:#94b422;}.cls-2{fill:#f29100;}</style></defs><title>Element 4</title><g id="Ebene_2" data-name="Ebene 2"><g id="Ebene_1-2" data-name="Ebene 1"><path class="cls-1" d="M12.18,124.24c-.24.21.06,0,0,0Z"/><path class="cls-1" d="M96.18,70.44c.13,0,0,0,0,0Z"/><path class="cls-1" d="M117.62,69c0-.14,0,0,0,0Z"/><path class="cls-1" d="M143.44,48.67c.32,0-.06,0,0,0Z"/><path class="cls-1" d="M143.17,66.73c-.08-.1,0,0,0,0Z"/><path class="cls-1" d="M143.93,59.55l.42.31c-.36,1.7-.73,3.41-1.2,5.61h0l-.14.67h0a.4.4,0,0,0,0,.22,1.53,1.53,0,0,1,.14.35l.19.26,1.57,2.22c.58,1.17,1.17,2.35,1.64,3.35a2.3,2.3,0,0,0-.25,1.51c.8,0,1.74,0,2.77,0l.24.1.09-.09c4.91.14,11.72.48,15.4.49l0-.54c-.26-.17-.51-.44-.77-.49a20.36,20.36,0,0,0-2.32-.27c-2.74-.16-9.08-.72-12.78-.93-1.68-2.52-2.86-4.22-4.65-6.94a2.91,2.91,0,0,0,.52-.87c.35-1.14.39-2.35.64-3.51a2.72,2.72,0,0,1,.07-.33l2.94,2.14,0-.49a5.56,5.56,0,0,1,.75,0A11.65,11.65,0,0,0,146,59c.2-.85.35-1.46.66-3.09a5.88,5.88,0,0,0-.23-1.87l-.75-.09c-.35,1.63-.63,3-.9,4.21a15,15,0,0,0-1.64-.94c-1.58-1.28-6.46-2.37-8.75-2.17a38.51,38.51,0,0,0-8.36.54c0-.18,0-.36,0-.56-1.46,1.39-3.73,5.1-5.45,8.5v0a1.54,1.54,0,0,1-.08.19l-.56,1.16c-1.71-3-5.15-7-6.41-7.12a6.43,6.43,0,0,0-4-.36c-3.82,0-10.5,1.44-11.16,2.62a7.67,7.67,0,0,0,1.37.07c3.62-.46,3.42-.68,7-1.15.86-.12,1.72-.17,2.57-.29,1,.15,1.39.11,3,.44.65.12,1.29.33,1.94.4l.08,0c1.5,2.09,1.74,2.08,3.48,4.56.5.72,1,1.48,1.49,2.17l-.13.31a12.85,12.85,0,0,0-1.5,2.19,1.57,1.57,0,0,1-.06.41c0,.06,0,.16,0,.36.16,3,.33,6.09.56,9.13,0,.44.46.86.7,1.29l.09,0c2.56,3,6.66,8.25,9.48,11.66a1.65,1.65,0,0,0,0,.94c1.15,2.29,2.37,4.55,3.6,6.81l.11.2c-.38,4-1.36,10.39-1.65,14.08l.71.18c.27-.35.72-.68.77-1,.35-2.55,1.51-10.07,1.79-12.62,0-.17,0-.25,0-.3h0s0,0,0,0l.29-.23c-1.66-2.84-2.61-4.58-4-7a1.43,1.43,0,0,0-.12-.54A21.54,21.54,0,0,0,128.71,90c-1.87-2.4-6.38-8.59-8.31-11-.19-.24-.41-.59-.85-.52,0-.4,0-.78,0-1.16.58-4,.35-4,1-8.21.2-1.29.48-2.58.6-3.88.7-1.33,1.12-2.25,2.59-4.79.7-1.21,1.49-2.38,2.12-3.62a1,1,0,0,0,.06-.18c.87-.18,1.14-.3,2-.48s1.58-.1,2.38-.13c2.54-.12,3.31-.06,4.69-.07,2,.49,2.17.35,4.59,1l.88.27C141.45,58,142.7,58.83,143.93,59.55Z"/><path class="cls-1" d="M242,124.83a35.48,35.48,0,0,0,1-7.3,15.35,15.35,0,0,0-.17-2.51l-.09,0a11.42,11.42,0,0,0-.71-2.58c-1.64-3.26-3.29-6.5-4.95-9.75a58,58,0,0,0-3.54-6.85l-1-2-.36-.71a8.85,8.85,0,0,1-.52-.8,3.11,3.11,0,0,0-1-.91,17.72,17.72,0,0,0-1.78-2.07l-3.18-3.78c-.43-1.28-2.72-3.89-5.45-6.48l-2.58-3.06,0,0c-.21-.27-.38-.64-.64-.79A26,26,0,0,0,214.62,74c-.76-.35-1.78-.83-2.93-1.39l-.15-.07h0c-2.25-1.08-5-2.41-7.41-3.57-1.08-.64-2.21-1.24-3.29-1.89-4.6-2.74-4.66-3.07-8.47-5.39q-3.09-2.45-6.21-4.86l.14-.39a16.74,16.74,0,0,0-3.14-1.51c-1.95-.5-4-.69-5.95-1.08-3.94-.78-4.37-.92-7.54-1.53l.31,0-.27-.54-7.18.22h-.95c-4.5-.18-4.5-.25-9-.38a5.55,5.55,0,0,0-1.34.14c-1.89-.85-3.78-1.62-5.45-2.21l0-.15c-.54-.25-1.09-.7-1.63-.69a6.2,6.2,0,0,1-.75,0l-.36,0c-.34-.08-.66-.15-.94-.19v0H142l-.13,0,0,0c-4.37.13-8.74.21-13.09.44a14.9,14.9,0,0,0-3.31.79c-2.89-1.33-11.67-1.82-13.31-.78l-2.09-.13a7.88,7.88,0,0,0-1.64.29l.2.1a35.05,35.05,0,0,0-8.52,3.31l-.74.29c-4-.36-10.67,1.18-17.65,3.34l-.07-.24c-2.07.22-4.29,0-6.16.73-3.29,1.24-6.33,3.11-9.54,4.57-7.19,3.25-7.26,3.11-14.4,6.45a14.38,14.38,0,0,0-3.33,2.56A32.45,32.45,0,0,0,37.49,81.57l-.29.51c-1.28,2.26-2.41,4.27-1.57,8.24-4.29,2.26-12.74,8.86-15.13,12.16l-.13.06,0,0,0,0c-1.06,2.72-2.09,5.92-3.18,9.32-.88,2.72-1.78,5.53-2.77,8.3l0,.12-2.61,2.12c-.05-.17-.13-.37-.2-.62a3.44,3.44,0,0,0-.83,1.45l-1.16.94c0,.05,0,.11.07.17h0c-.8.61-.85,3.6-.32,5.4,0,0,0,.09,0,.13-1.6,3.14-4.28,9.11-4.81,14.73l-1,3.12-1,2.12-.15-.18a5.54,5.54,0,0,0-.85,2.37c-.49,1.1-1,2.19-1.48,3.28l.57.39.5-.15c-.28,4.4,0,10,.88,13a26.72,26.72,0,0,0-.9,12.86,14.19,14.19,0,0,0,3.24,7.09c3,8,7.89,13.51,16.92,19.32,0,.17,0,.17,1.3.62l1.07.38,0,.12.22-.05c1.38-.26,2.57-.53,3.7-.81l3.8,3.86a46.25,46.25,0,0,1,3.19,8l-.59-.21c-.1.18-.2.36-.29.54l1.34,1c.23.66.47,1.27.71,1.82l.5-.19c0-.21.11-.43.14-.64l3,2.21a13.89,13.89,0,0,0,1.87,1.37l9,6.66a.08.08,0,0,1,0,0c.27.21.52.53.81.62.87.27,1.74.48,2.62.66,2.8.56,8.85,1.92,13.12,2.8l-.66,0c1.22.22,2.42.4,3.61.55l.2,0a2.38,2.38,0,0,0,.71.07,61.12,61.12,0,0,0,7.43.34l6.15,1,0-.07h.17a10.61,10.61,0,0,0,1.78-.37,34.06,34.06,0,0,0,4-.86c.53-.1,1.07-.2,2-.39-.23.87-.45,1.74-.67,2.61l-8.1,21.08A61.85,61.85,0,0,0,87.64,253c-1.19,3.43-1.59,4-3.15,8.8a18.13,18.13,0,0,0-.4,2.2c1.33-.71,4.15-7.23,6-13a12,12,0,0,0,.84-2.17c1-4.22,1.91-8.43,2.83-12.64l.45-.32h0A41.26,41.26,0,0,0,97.9,234l0,0,.58-.4c1.27-.73,2.57-1.53,3.94-2.45l.07-.31c3.68-2.55,6.64-4.63,10.73-7.45C108,233.7,95.06,266.31,94,272.87l.22,0h0l.22,0a.19.19,0,0,0,0-.07l.55-.08h0l.2.09c.66-1.49,2.39-5.86,4.07-10.1,1.37-3.45,2.66-6.71,3.19-7.95q3.66-8.58,7.34-17.16,3.21-7.47,6.39-14.93a14.38,14.38,0,0,0,5.07-.71l0,.05c.29.31.47.5.64.5h0a.25.25,0,0,0,.17-.11l3.49-5a4.7,4.7,0,0,0,.34-.44h0l2.57-3.7,8.08-11.68a1.66,1.66,0,0,0,.13-.27l.37.08a42.2,42.2,0,0,0,9.35,2.25l-2.59.64a84.16,84.16,0,0,0,8.77-.11c.56,0,1.13.05,1.71.06l.13-.11a23.51,23.51,0,0,0,4.26-.48c7.81-.88,16.85-2.76,23.92-6.45-.84.95-1.82,2-3,3.21,5-2.37,9.53-8.54,10.63-13.18a55.4,55.4,0,0,0,4.26-13.38,26.29,26.29,0,0,0,7.15,1,41.29,41.29,0,0,0,12.8-2.36l.89-.29c9.14-2.79,15.18-6.5,19.61-12,2.54-3.18,2.65-10.24,1.64-15.95,3.24-2.4,8.33-7.36,4.58-16.39a1.4,1.4,0,0,0,.19-.39A14.13,14.13,0,0,0,242,124.83ZM121.7,202.05l-7.18,8.08a22.16,22.16,0,0,1-7.34,1.27c-.22-.06-.44-.12-.66-.16-3.66-.7-7.39-1.1-11.09-1.69-8.25-1.34-8.24-1.41-16.5-2.7a52.8,52.8,0,0,0-5.63-.29c0,.26.06.52.1.78l20.38,3.32a12.57,12.57,0,0,0-3.46,1.07c8.65.53,10.43-.3,20.62,2.52.23.31.34.51.61.84-1,3.36-1.73,5.83-2.87,9.56q-4.09,2.91-8.18,5.87L92,234.26l-6.24,1.51-11,.5-3.32-.38,0-.18c-2.35-.34-6.34-1.17-10.41-2l-5.41-1.65,5.9-2.08.09.1.41-.27,7.54-2.66-.13-.6c-.53,0-1.08,0-1.61,0,1.42-.91,2.87-1.95,4.41-3.13l.06-.4,4.53-3-.28-.55a12.78,12.78,0,0,0-2.89.88c-1.5.86-2.83,2-4.27,3-3.13,2.09-3.26,2.09-6.21,4.09l-3.46,1.79c-2,.68-2.58.85-5.47,1.92a3,3,0,0,0-.67.34l-4.42-1.35h0c-3.6-2.72-3.64-2.66-7.26-5.34-.94-.7-1.85-1.45-2.77-2.17a37,37,0,0,1-5-6.83c-1-2.89-2.23-6.31-3.06-8.47,1.11-.27,2.28-.54,3.63-.8q10.92-2.13,21.87-4.28c5.87-1.15,10.9-2.15,15.55-3.08,15.15,1.22,31.31,2,44.36,2,2.67,0,5.2,0,7.57-.1-1.27,1-2.74,2.4-4.23,3.87l1.25-1.43a13,13,0,0,0,.93-1.36Zm-10.58,20.86c.8-2.86,1.58-5.72,2.31-8.6a1.48,1.48,0,0,0,0-.47,2.44,2.44,0,0,0,.74-.45c1.28-1.26,2.41-2.68,3.63-4,4-4.43,4.13-4.09,8.1-8.46,2.52-.09,4.83-.23,6.87-.41l2.34.5a2.91,2.91,0,0,1-.43.84l-3.39,4.85c-.43.63-2.39,3.28-4.45,6.1l-3.62,4.94-.72.44c-1,.55-1.54.84-2,1.08-2.28,0-6.07.79-8,2.68l0,0-.34.24ZM233,158.55c-4.09,5.11-9.75,8.57-18.36,11.19l-.94.3c-3.37,1.1-11.07,3.59-18.79,1.27a37.49,37.49,0,0,0,0-8.21l-.75-1.69c7.8.56,12.12.8,20.19,1.38l.29-.74c-.5-.33-1-.86-1.5-.94s-.7-.12-.74-.13l-.63,0c-2.8-.17-5.6-.32-8.41-.47-2.57-.46-5.15-.9-7.73-1.34l-3.44-2.09-.95-2.12q.13.85.24,1.68l-1.36-.82a82.92,82.92,0,0,0-14.33-9.44c6.06-2.12,14.82-6.56,15.54-8.21l-.42.1c4.71-3.76,9.77-8.73,10-10.23a19.17,19.17,0,0,0-1.91,1.17c-4.7,3.8-4.31,3.88-9,7.69-1.36,1.1-2.78,2.12-4.08,3.28-2.49,1.13-3.36,1.68-7.51,3.42-1.48.62-3,1.16-4.44,1.81a90.51,90.51,0,0,0-8.74-3.85,31.49,31.49,0,0,0,.52-3.37c.43-5.63.77-11.29,1.14-16.93,1.69-4.83,3.34-9.69,5-14.54l-.38-.46c-2.09,5.62-4.2,11.21-6.23,16.9a2.2,2.2,0,0,0-.13.54c-.88,1.93-1,7.11-.15,9.28a.58.58,0,0,0-.18.26q-1,3.73-1.94,7.48c-1.33-.44-2.62-.83-3.84-1.14l.59-.26-.32-.62-2.1.22a13.61,13.61,0,0,0-4.14-.25c-.45,0-.88,0-1.29,0l.17.07a10.7,10.7,0,0,0-4.27,1.17l-6.64.71-.22-.09-5-1.92-.25-.07c-1.74-3.54-3.35-8.88-1.34-14.49a34.31,34.31,0,0,0,1.16-3.6l.44-1.64-1,1.39c-4.62,6.62-5,15.33-.81,18.85l-16.13-6.11a.45.45,0,0,0,0-.11l6-.43.06-.59a7.79,7.79,0,0,0-1.59-.42c-1.55,0-3.11,0-4.66.05a2,2,0,0,0-.14-.8c-.79-1.68-1.56-3.36-2.36-5-.09-.18-.3-.3-.52-.5-.72.78.41,4.24,1.7,6.38-6.09.25-12.17.5-18.25.84a4.21,4.21,0,0,0-1.69.29L81.11,119.4l.51,1.13c1.91,4.22,8.95,10.76,14.06,13.49a2.74,2.74,0,0,0,0,.4l.67,0A12.62,12.62,0,0,0,98,135c-3.69,2.18-3.71,1.84-7.43,4a3,3,0,0,0-.31.22,14.81,14.81,0,0,0-1.8-6.28,9.52,9.52,0,0,0,1,7l-.09.08a.66.66,0,0,0,.15,0,5,5,0,0,0,.75.89c0-.3,0-.59,0-.88,2.73-.36,9.32-3.73,12.14-6.23l13.46-1c.39.44.72,1,1.22,1.22,1.74.79,3.53,1.49,5.32,2.15q6.7,2.44,13.42,4.83l-.6.06-.15.71a4.56,4.56,0,0,0,1.57.58c.82,0,1.64-.08,2.45-.15l1.58.71.33.15.18-.74h0v-.15l.05-.19.57-.06c4.66-.56,9.31-1.13,14-1.75,5.61,2.32,10.66,4.45,15.88,7l-.12.13.29,0a182.91,182.91,0,0,1,19.86,11.4,67,67,0,0,1-3.82,28.5,26.44,26.44,0,0,1-4.78,2.27l-3.24.38c-.63.08-3,.32-5.86.59-5.71-1.13-13.18.81-16.42,3.77a12.32,12.32,0,0,0-3.72,3.16c3.87-1.72,5.76-2.87,8.5-3.9L173,192.29l13.62-1.69c-.49,1.14-1,2.11-1.35,2.88-9.16,5.77-19.73,8.15-27.41,8.88-1.17.07-2.22.13-3.26.16-7-1.06-9.38-.78-15.77-2.86a12,12,0,0,0,3-1l1.06-.59-1.22,0-6.92.12-1.79-.69c.27.24.57.47.86.7-21.08.26-39.77-.48-58.54-1.33-6-.53-12.59.93-16.19,3.47l-5.7,1c-5.25.89-10.61,1.8-15.79,2.73L52.09,186l.71.12c5.63.91,11.26,1.83,16.89,2.72a19.05,19.05,0,0,0,2.11.06c-.4-.51-2.52-1.2-5.4-1.89l-.1-.09,19.92-3.48c14.19,1.34,25.69,2.23,34.51,2.79a11.44,11.44,0,0,0,1.6.1c7.52.45,13,.64,16.25.64h.66c3.9,2.19,8,3.74,10.4,3.62-3.34-1.49-6.12-2.72-9.06-4.28.52-.26.77-.41.74-.64s-.12-.22-.31-.25a10.53,10.53,0,0,0-2.19-.08,91.43,91.43,0,0,1-8.46-5.48,23.86,23.86,0,0,0,6.34,5.58,12.79,12.79,0,0,1-1.76,0c-2.63-.28-5.31-.51-7.91-.72-2.26-.19-4.6-.39-6.89-.62l-4.72-.46a83.17,83.17,0,0,1-12.55-6c1.69,2,4.94,4,8.44,5.62-3.26-.27-6-.47-8.59-.66-3.2-.23-6.48-.46-10.73-.84a20.76,20.76,0,0,0-7.06-.68h0a19.89,19.89,0,0,0-9.26,2.7l-1.6.3c-5.47.68-7.36,1.38-13,1.07-4.15-.86-9.42-1.42-11.27-1a22.42,22.42,0,0,0-4-.11,10.31,10.31,0,0,0,2.85,1.13c.75.16,1.34.3,1.91.44q-1.52,1.71-2.92,3.53c-3.44,4.41-6.87,8.84-10.25,13.29a7.1,7.1,0,0,0-.84,1.83c-2.45.45-4.85.9-7.16,1.36-1.33.27-2.68.67-4,1.06l-1.49.44-2.82-3,5.4-14.41-.59-.39c-.25.16-.57.28-.8.44L16.36,183l-5.48-9-.66.22c-.05.43-.26,1-.11,1.27a30.2,30.2,0,0,0,1.74,3.09q2.87,4.51,5.81,9a4.93,4.93,0,0,0,1.32,1l.46-.48c-.28-.47-.57-.94-.86-1.41,1.8,1.32,3.61,2.63,5.45,3.91a1,1,0,0,0,.4.13c-.38.84-.73,1.69-1,2.56-1.14,3.25-2.27,6.51-3.36,9.78L3.76,185.42a15.24,15.24,0,0,1-1.38-4.2,26.42,26.42,0,0,1,.44-10.83.87.87,0,0,0,.22.17,2,2,0,0,0,0-1,6.71,6.71,0,0,1,.76-1.71L2.73,167a3.33,3.33,0,0,0-.24.39.86.86,0,0,1-.05-.24,45.61,45.61,0,0,1,.68-14.86c2.79-3.5,4.67-9.39,3.92-12.28.46-1.45,1-2.91,1.5-4.35.37-1,.72-2,1.05-3a2.26,2.26,0,0,0,.6-.85c.22-1.2.43-2.4.64-3.61,0-.21.1-.43.13-.63a.82.82,0,0,0,0-.14c.16-.93.31-1.86.46-2.79a.45.45,0,0,0,.12-.06,4.61,4.61,0,0,1,.63-.4l.48-.41q6.29-5.2,12.51-10.5a9.7,9.7,0,0,0,1.38-2l-.66-.39c-3.08,2.49-5.45,4.42-7.78,6.32q1.37-5.58,2.74-11.15c.59-1.42,1.2-2.84,1.8-4.09l.16-.08c1.44-1.07,2.76-2.31,4.15-3.46,4.54-3.74,4.67-3.48,9-7,.15.54.33,1.1.55,1.7l-4.4,3.33.86-.23a23.93,23.93,0,0,0,6.78-3.84c3.42-1.27,8.09-5.14,10.53-8.45a25,25,0,0,0,5.42-7.39c1-.7,2.66-1.85,3.13-2.34h0l.19-.06q3-1.19,6-2.42c1.84.42,5.35-.44,6.45-1.46l15.15-2c2.81,1.15,4.82,1.94,7.34,3,1.71,3.58,2.74,5.76,4.45,9.36-2.52,0-5.54-.06-8.39-.09,0-.11-.1-.19-.22-.22-2.46-.58-.68.09-3.13-.48-.74-.17-1.45-.42-2.19-.52a.41.41,0,0,0-.19,0l0,0-2,.69h0l0,0c-8.3,2.88-22.45,7.45-29.59,10l.08.46a50.28,50.28,0,0,0-8.09,5l0,0-.48.39a32.35,32.35,0,0,0-3,2.49,3.16,3.16,0,0,0-.62.59c-.5.67-.68.88-.72.92l-.55.83c-4.8,7.15-2.23,3.86-7,11.06a21,21,0,0,0-1.51,3.42c.27,0,1.46-.06,1.74,0,4.62-7.08,7.21-10.93,11.57-17.6,1.19-.81,1.87-1.34,3.15-2.21,7.73-4.15,5.31-2.45,15.9-7.46,5.22-1.62,12.13-3.73,16.76-5.22-1.75,2-3.46,3.88-5.26,5.87-2.34,2.61-4.77,5.3-7.32,8.21l-.44.51C64.55,99,63,101.44,63,103.57a16,16,0,0,0-10.15-2.72,6.65,6.65,0,0,0-4.65,2.41,7.31,7.31,0,0,1-.69.8,6,6,0,0,0-.78,1,1.78,1.78,0,0,0-.28.46c-.19.39-.49,1.08-.92,2.07-1.81,2.64-5.69,13.63-8.32,22.93l.13-2.25-.48.76c-2,3.13-2.76,8.56-2.15,12.1,0,.13,0,.25,0,.37l-.19-.15c-.08-.06-.16-.12-.22-.06s0,.13.11.31l.11.14-.05,0-.29-.18.18.29.26.42c-.1,1.12,0,1.86.22,2.09a2.42,2.42,0,0,0,.3-1.3,52.85,52.85,0,0,0,8.41,9.81,3.85,3.85,0,0,0-.85.91c-.44.71-.59.94-.63,1s-.22.42-.47.87c-3.64,6.74-2.27,4.71-4.75,9.53a24.33,24.33,0,0,1-3,1.55c-.68.32-1.33.63-1.91.94l-11.47,1,.86.26a14.86,14.86,0,0,0,3.75.5c-2.11,2.82-5.12,10.48-5,13.43.68-.56,1.31-.84,1.5-1.28.52-1.19.83-2.45,1.26-3.67,1.44-4.1,1.67-3.83,3.09-7.93a2.93,2.93,0,0,0,.12-.53,34.13,34.13,0,0,0,8.39-1,4.49,4.49,0,0,0-.16,1.09c.11,5.88.29,11.75.49,17.63,0,.35,0,.56,0,.68a5.67,5.67,0,0,1,.12.8,5.11,5.11,0,0,0,.91,1.65l.75-.29c-.37-8-.53-12.6-.85-19.82,5.69-10.32,3.23-6.33,8.78-16.4a22.06,22.06,0,0,0,4.13,2.68l6,8.14-.5.54.08.09c1.07,1.06,2.08,2.05,3.05,3L61,173.26l.67-.24c0-.27,0-.57,0-.86a51.42,51.42,0,0,0,8,6.16l.42.21-.23-.35a2,2,0,0,1,.47-.16c.38-.11.61-.18.67-.33a.23.23,0,0,0,0-.18,2.52,2.52,0,0,0-1.15-.7,3.09,3.09,0,0,1-.85-.45c-.68-.71-1.4-1.4-2.1-2.06s-1.24-1.16-1.84-1.77c-2-2.09-3.39-3.28-4.7-4.43-1.12-1-2.28-2-3.88-3.6q-3.19-4.25-6.46-8.45a1.77,1.77,0,0,0-.33-.34v0h0l0-.07c-3.35-1.83-6.33-5.14-9.22-8.33-1.37-1.52-2.68-3-4-4.2l.54-9.41c2.59-8,7-19.46,9.09-23.91l.61.2.5-1.38c.47-1.3.95-2.6,1.41-3.9a1.82,1.82,0,0,0,.07-.25,15,15,0,0,1,12.6-.59c.24.13.54.26.86.4A10.93,10.93,0,0,0,67.26,110a6.91,6.91,0,0,0,3.06.76c.13,0,.25,0,.38,0l-.24.57a8.72,8.72,0,0,0-1.81,1.94l-.33.56,1.56-.9a75.06,75.06,0,0,0-3,14.84L58.11,120l.3.7c1.11,2.58,5.24,6.53,8.35,8.29a4.94,4.94,0,0,0,.25,2.13c.26-.67.51-1.17.68-1.66a6.06,6.06,0,0,0,1.07.38l.64.13-1.49-1.31c1.32-5.48,1-5.46,2.4-11.21.43-1.75,1-3.47,1.3-5.24a2,2,0,0,0,0-.35l7.53-4.33c3.3-.7,6.61-1.37,9.91-2.07l0,0c.8,5.06,5.49,11.73,8.49,11.86l.46,0-6.11-9L90.31,98.22c-.06-2.22-.13-4.46-.24-5.71,0-.41.05-1-1.85-.64.38,3,.71,8.76,1.07,12.6l-.36-.53.07.68a35.55,35.55,0,0,0-7.38.79,21.9,21.9,0,0,0-4.33,1,17.28,17.28,0,0,0-2.7,1,29.68,29.68,0,0,0-4.1,1.92,12.22,12.22,0,0,1-4.5-1.74l-.08-.1-1-1.26a2,2,0,0,0,0-.24c-.07-.26-.13-.53-.19-.8l.84.29-.92-.73s0,0,0,0c-.09-.37-.18-.74-.26-1.1a9.73,9.73,0,0,1,3.09-5.76,14.1,14.1,0,0,0,1.27-1.16c4.82-2.7,11.32-10,13-14.57l1-.34A6.75,6.75,0,0,1,84,81.62,20.45,20.45,0,0,0,86,81.8c2.82.09,9.41.51,13.07.61a4.05,4.05,0,0,0,.21.35c3.37,5,3.48,4.64,6.86,9.65.95,1.4,1.81,2.87,2.81,4.23,0,1.55-.22,3.26-.06,4.76.61,5.67,1.19,11.35,1.81,17a15.16,15.16,0,0,0,.51,2c1.11-1.43.09-15.65-1.28-22.94.38.23.84.45,1.36.78a10.56,10.56,0,0,0-.47-1.17c.85-.29,1.68-.65,2.52-1,2.93-1.11,2.82-.94,5.75-2.06.31-.12.62-.31,1.06-.53-.78-.3-6.65,1.63-9.57,3a70.31,70.31,0,0,0-10.11-14.19c.4,0,.87,0,1-1,1.35-.65,0-.42,3.3-1.72,1.25-.49,2.55-.85,3.75-1.45.45-.22.65-1,1.16-1.74-3-.17-8,1.86-10.21,3.82a3,3,0,0,0-.12-1.09c-.42-1.11-1.12-2.1-1.63-3.17-1-2.08-1.09-2.38-1.87-4l.81.33c.14-.22.27-.44.41-.65-.16-.38-.23-1-.5-1.11a1.41,1.41,0,0,1-.35-.23l-.34-.13L92.26,69a9.9,9.9,0,0,0-3.09-1.51v0c-.14,0-.28,0-.41-.06A8,8,0,0,0,87,67,6,6,0,0,0,85.71,67c-2,.15-4,.62-6,.88-4,.53-4.43.53-7.64,1l.29-.12L72,68.28c-4.35,1.63-8.72,3.23-13.05,4.9a21.61,21.61,0,0,0-2.22,1.07l-.51.22v0l-.05,0c-2.3,1.1-4.35,3.5-4.31,4.84l-5.4,6L44.66,87,38.6,91.55c-1.4-4.28-.55-5.8.82-8.22l.29-.53c2.83-5.08,7.11-9.07,13.68-12.71l11.14-5c11-4.41,28.93-10.79,35.3-9.65l.2-1.12c1.11-.38,2.21-.79,3.33-1.15,5.24-1.72,5.6-1.57,10-3,2.29.3,5,.54,7.62.69l3.41.53a.05.05,0,0,0,0,0l.33.69,2.69-.25,2.54.4-.28-.61c4.88-.45,8.65-.83,14.06-1.33h0c1.61.79,3.32,1.39,5,2.09l1,.42h0c4.57,2,4.58,2.28,9.8,4.5a18.69,18.69,0,0,0,2.16.59c-.42-1-3.6-2.91-7.37-4.79a8.37,8.37,0,0,0,1.31.06l1.21-.07,12.47.51,14.3,2.86c6,5,9.42,7.64,15.66,12.76l.61-.39c1.3.55,2.76,1.19,4.3,1.86l.68.3,5.63,2.49h0a33.8,33.8,0,0,1,5.67,4.23c3,2.56,3.61,3.32,5.25,4.85.62.72,1.33,1.55,2.53,3s2.43,3.23,3.8,4.7l.24.21a41.81,41.81,0,0,1,3.42,5c1,1.71,1.65,2.79,2.14,3.69,2.74,5.19,5,9.54,8.44,16-2.08,8-.79,4.73-2.86,12.78h0v0h0c3.36,10.66-2,13.58-4.9,15.15a10,10,0,0,0-1.14.69l-.33.25,1.58,1.47C235.07,151.19,234.57,156.51,233,158.55Zm-68.23-17.2-.84-.3a16.24,16.24,0,0,0,.71-1.91A21.09,21.09,0,0,0,164.72,141.35Zm-66-6.74-.43-.38,1.15-.08Zm42.3,51h0Z"/><path class="cls-1" d="M225.67,158.47c-.07,0,.3.11,0,0Z"/><path class="cls-1" d="M213.64,153l-1.27-.47a23.58,23.58,0,0,0,.39-6.06,2.66,2.66,0,0,0-.1-.95,3.09,3.09,0,0,0-.41-1.31c-.8-2.13-2.32-4.88-3.29-5.63a30.8,30.8,0,0,0-1.27-3,4.29,4.29,0,0,0-.66-.91c.71-2.05,1.42-4.11,2.08-6.18.09-.27-.09-.61-.17-1-.84.27-2.2,3.76-2.74,6.3l-.19-.21-.48.2.49,1.11a2.76,2.76,0,0,0,.08,1.4l.39-.34,5.07,11.49c-.11,1.63-.22,3.25-.31,4.87l-3.26-1-.46.61a9.52,9.52,0,0,0,2,1.33l1.91.64a2.91,2.91,0,0,1,.2.35.72.72,0,0,0,.2-.22q6.6,2.2,13.21,4.33l.6.2s.21,0,.73.14a4.48,4.48,0,0,0,1.74-.34v-.79C222.23,155.67,218.43,154.46,213.64,153Z"/><path class="cls-1" d="M205.64,119.92,193,119.36c-1.6-3.27-4.76-9.14-6-11.68-.21-.43-.45-.85-.7-1.27.41,0,.88-.14,1.45-.19a16.65,16.65,0,0,0-3.16-1.86c2-.71,3.93-1.45,5.88-2.2l.28-.11h0s0,0,0,0l.35.15c2.11-3.33,3.26-5,5.38-8.36l-.54-.49c-.4.18-.95.26-1.17.56-1,1.43-2,2.88-3,4.33-1.61,1.17-3.2,2.35-4.79,3.55l-4.21,1.73c-1.09-.47-2.26-.92-3.45-1.35h0a7.76,7.76,0,0,0,2.13-1,29.33,29.33,0,0,0-7.61-.84c0-.16-.06-.33-.1-.49l.15-.12h-.17Q172.38,92.9,171.06,86l-1,.1,2.25,13.68c-.35,0-.73.08-1.13.13a4.27,4.27,0,0,0-2,0l.37.23c-.6.11-1.22.23-1.86.37-2.9.23-5.23.67-5.8,1.26l.47.09a50.93,50.93,0,0,0-8,2.87l-.14-.07a119.68,119.68,0,0,0-.91-13.43c3.65-3.11,10.5-8.44,13.77-11.28l-.33-.42a2.82,2.82,0,0,0-.91.13A21.7,21.7,0,0,0,164,81.05c-2.34,1.81-8.12,6-10.87,8.18a36,36,0,0,0-1.47-7.07,3.8,3.8,0,0,0-.08,2c.05,1.06,0,2.23-.09,3.36-2.3-3.21-7.18-10.36-9.31-13.18-.37-.47-.79-1.26-2.23,0,2.91,3.64,8.1,10.77,11.58,15.28q.79,7.43,1.58,14.85H153c0,.4,0,.84-.07,1.3l0,.06h0c-.27,4.89-1,13-1.18,17.1l.53.06c.18-.25.47-.5.52-.76a18,18,0,0,0,.36-2.3c.3-3.16,1.33-11.08,1.55-14.24v0l.4-.08c5.87-1.43,5.56-1.66,11.43-3.1l1.78-.4c1.53-.06,2.69-.14,5.46-.1,2.42.87,3.27,1,7.11,2.52,1.35.53,2.67,1.15,4,1.64,1.54,3.47,4.21,9,6.1,13.06l-.31,0c-1.66-1-3.32-2-5-2.89-.26-.15-.67,0-1.12,0,.12,1.11,4.62,3.86,7.23,4.72.18.4.35.78.49,1.12,1.66-.59,1.45-1.16,1.23-1.61,2,.1,2.46.07,5.2.2,1.44.07,2.86.31,4.32.29a12.53,12.53,0,0,0,2.56-.62Z"/><path class="cls-1" d="M212.4,161c.32,0-.06,0,0,0Z"/><path class="cls-1" d="M232.16,93.2c.05.06-.18-.37,0,0Z"/><path class="cls-1" d="M42,154.73c.23-.45-.07.08,0,0Z"/><path class="cls-1" d="M34.78,187.74c0-.07,0,.34,0,0Z"/><path class="cls-1" d="M183.52,71.85c.27,0-.06,0,0,0Z"/><path class="cls-1" d="M234.4,112.3a8.09,8.09,0,0,1-.27-1.17,6.91,6.91,0,0,0-.38-1.38,1.8,1.8,0,0,0-.23-.57c-.32-.63-1-1.81-2.17-3.83l-.18-.31-.27.24a11,11,0,0,0-6-4.84,13.63,13.63,0,0,1-1.48-.52,10.63,10.63,0,0,0-1.77-.55,2.43,2.43,0,0,0-.77-.16c-.55-.06-2.68-.17-4.93-.28l-4.44-.23c-.11-.61-.25-1.21-.41-1.82a2.86,2.86,0,0,0,.41.3,28.52,28.52,0,0,0-1.65-2.43,65.35,65.35,0,0,0-9.85-12h0c-.33-.3-.64-.57-.94-.8l-.07-.09-.57-.44q-3.9-3.3-7.82-6.55a4.9,4.9,0,0,0-.94-.45,13.14,13.14,0,0,0,2.46,2.73c-2.61-1.77-5.4-3.65-6.94-4.59a4.16,4.16,0,0,0-.42-.23,1.32,1.32,0,0,0-.59-.32,3.66,3.66,0,0,1-.62-.13l-.54,0-7.48-.43c-.58-2.41-2-7.43-2.54-9.52a12.74,12.74,0,0,0-.5-1.59c-.07-.18-.29-.32-.44-.48l-.36.09c.54,2.77,1.83,8,2.58,11.44-1.76-.09-3.52-.18-5.28-.25a7.07,7.07,0,0,0-2,.53c.05.25.11.49.17.73,6.54.5,10.21.72,16.23,1.17,3.08,1.75,8.35,5.1,12.44,7.59-5-1.39-12.44-2.72-13.7-2.16a9.57,9.57,0,0,0,1.92.94l4.71,1a50.79,50.79,0,0,0,10.42,3l0,0c1,1.24,2.11,2.4,3.15,3.62,3.65,4.26,3.41,4.42,6.75,8.34a125.13,125.13,0,0,1,3.43,18.31c1.93-.1,1.69-.83,1.61-1.35-.35-2.48-1.42-7.89-2.11-11.6l5.83.15c2.19,0,4.27.1,5.43.14l.4,0c3.66,3.08,8,8.07,8.22,14.61a17,17,0,0,1-6.3,8.45,27.07,27.07,0,0,0-2.54,1.84c-2.95-2.07-8.69-5.77-11.06-7.41a20,20,0,0,0-2-1.21,2.87,2.87,0,0,0-.91-.09l-.3.44c3,2.35,8.91,6.46,12.88,9.4l-.43.35.61-.21.1.07h0c1.16,2.3,2.38,4.56,3.61,6.81l.11.21c-.28,3.42-.5,5.45-.79,9.1l.71.18c.27-.34.72-.67.77-1,.36-2.55.65-5.1.92-7.65,0-.17,0-.25,0-.3h0s0,0,0,0l.12-.09h0v0l.16-.13-.1-.16c.07-1.35-1.7-5.21-3.09-7-.06-.32-.34-.48-.56-.64l0,0h0a20.35,20.35,0,0,0,8.28-6.14v.09l.14,1.37.41-1.31c.16-.52.28-1,.4-1.56A9.06,9.06,0,0,0,234.4,112.3ZM195.93,82.43l1.91.39.24.23Z"/><path class="cls-1" d="M22.67,148.17a8.13,8.13,0,0,0-1,.87,6.78,6.78,0,0,0-.26-1.57c-.92-3-1.95-6-2.95-8.93,2.88-2.87,5.72-5.78,8.57-8.68a2.75,2.75,0,0,0,.74,1.32l.26.24L28.2,129l4.13-2.79-.1-.39a4.85,4.85,0,0,0-1.22.4c-.91.58-1.81,1.18-2.72,1.78l.77-8.83-.38.56A14.94,14.94,0,0,0,26.8,129l-2.42,1.58c-3.71,2-8.11,6.44-7.81,8.36l.06.33.12-.13c.08.24.43.3.86.09.6,2.29,1.2,4.59,1.84,6.87l.44,5c-1.84,2.64-3,5.94-2.25,7.4l.16.31,5.42-11Z"/><path class="cls-1" d="M39.81,99.89c.27-.42-.08.07,0,0Z"/><path class="cls-1" d="M12.58,142c.08-.41-.58-.77-1.09-1.4-1.36,1.68-1.28,10.75-.21,16.36-1,1-6.47,7-5.53,12.2l.07,0h.06l.85-.17h.06c0-2.39,1.42-4.87,2.8-7.28A27.74,27.74,0,0,0,11.5,158c.41,1.8.95,3.09,1.58,3.38.3-.83-.64-2.75-.74-3.34A46.38,46.38,0,0,1,12.58,142Z"/><path class="cls-1" d="M73.83,155.34c-3-2.76-6.16-5.61-9.12-8a17.74,17.74,0,0,0-1.56-1.09,17.74,17.74,0,0,1-1.56-1.09l-.07-.05-.07.05,0,0-.08-.07c-.5-1-1-2-1.57-2.9-2.39-4.14-4.79-8.27-7.24-12.37a14.22,14.22,0,0,0-.58-5.62q-.08-1.12-.21-2.25c-.12.59-.2,1.19-.27,1.79a10.3,10.3,0,0,0-.43,4.59l-.11-.09-.45.52,8.7,15.55a.54.54,0,0,0,.07.13l2.07,3.7L62,148c0-.2,0-.41,0-.62,1.35,1.13,2,1.66,3.49,2.89l2.53,2.44c2.62,2.54,5.32,5.14,7.92,7.44-.76-.29-1.59-.63-2.51-1a16.14,16.14,0,0,0,5.36,3.26,14,14,0,0,1,1.16.87l.06.06.07-.05s.07-.05,0-.43c.38.12.76.22,1.14.31l.11.08,0,0c.41.09.83.17,1.24.23h0a12,12,0,0,0,5.35-.2c.71,0,1.42-.08,2.12-.14l10.56-.84c-1.65,4.09-2,3.7-3.84,8.86-.49,1.37.86,1.74,1.43.13,1.83-5.18,1.75-4.42,3.34-9.07l4.76-.41c4.46.75,9.25,1.5,14.29,2.26l-4.53,9.12.59.35,4.89-9.33c5.46.82,11.18,1.65,17.07,2.5l11.93,1.73q-2.38,4.8-4.76,9.58l.59.35,5.13-9.78c4.87.71,9.77,1.45,14.65,2.21.86,5.75,4.8,12,8.42,13.94-2.47-4-3.91-5.63-5.46-8.69a.43.43,0,0,0,0-.21c-.38-1.59-.78-3.18-1.2-4.76h.11l.78-.88.24.34a31.13,31.13,0,0,1,5.36-4c2.24-.87,3-1.1,6.26-2.44a15.69,15.69,0,0,0,2.59-1.68l-.39-.65-16.41,6.4c-4.35-.64-8.82-1.17-13.18-1.67l-.46-.05.15-1.09-22.91-2.12-5.69-.89c-.59-1.47-1.29-2.89-2-4.3q-3.33-6.41-6.74-12.77a8.3,8.3,0,0,0-1.48-1.55l-.47.49,8.84,17.58h-.82l-.06.13-10.6-1.6-.08-.15-.65,0-6.49-.93-.79-.11,1.43,1.43-5.75.39a2.66,2.66,0,0,0-.62-.79c-1.52-1.06-3-2.15-4.54-3.21a2.46,2.46,0,0,0-.7-.17c-.21.93,1.93,3,3.94,4.29l-14.44,1c-.47-.08-.94-.17-1.44-.28C78.67,159.74,76.22,157.52,73.83,155.34Zm49,6.69v0h0Z"/><path class="cls-2" d="M923.85,398c-6.09-38.67-12-77.41-23.54-114.36C866.37,175.28,792,98.13,702.39,30.08,649.06-10.41,541.77,2,541.77,1.17,488.12,11.29,432.88,16.34,381.15,32.59,273,66.58,196,141.06,128,230.84,86,286.31,95.33,341.46,102.38,398Z"/></g></g></svg>