<?xml version="1.0" encoding="UTF-8"?>
<!-- Generator: Adobe Illustrator 22.1.0, SVG Export Plug-In . SVG Version: 6.00 Build 0)  -->
<svg version="1.1" id="Ebene_1" xmlns="http://www.w3.org/2000/svg" xmlns:xlink="http://www.w3.org/1999/xlink" x="0px" y="0px" viewBox="0 0 122 229" style="enable-background:new 0 0 122 229;" xml:space="preserve">
<style type="text/css">
	.st0{clip-path:url(#SVGID_2_);fill:none;stroke:#E5007E;stroke-width:5;stroke-miterlimit:10;}
	.st1{fill:#94B422;}
</style>
<g>
	<defs>
		<rect id="SVGID_1_" x="-639" y="-616" width="1400" height="1469"/>
	</defs>
	<clipPath id="SVGID_2_">
		<use xlink:href="#SVGID_1_" style="overflow:visible;"/>
	</clipPath>
</g>
<path class="st1" d="M113.8,19c-4.3-1.5-15.3,9.4-19.7,16.7C82.4,55.4,72.5,76.2,61.9,96.5c-2,0.3-4,0.7-6,1  C49.4,87,42.6,76.7,36.8,65.8c-8.4-15.8-15.9-32.1-24-48.1C9.4,11.1,5.1,6.7,0,3.8v222c13.7,4.8,28.7-1.4,39.2-18.5  c20.2-32.9,39.4-66.5,56.7-100.9c9.8-19.4,15.3-41,21.8-61.9C120.5,35.6,126.2,23.2,113.8,19z"/>
</svg>