<?xml version="1.0" encoding="UTF-8"?>
<!-- Generator: Adobe Illustrator 22.1.0, SVG Export Plug-In . SVG Version: 6.00 Build 0)  -->
<svg version="1.1" id="Ebene_1" xmlns="http://www.w3.org/2000/svg" xmlns:xlink="http://www.w3.org/1999/xlink" x="0px" y="0px" viewBox="0 0 131 229" style="enable-background:new 0 0 131 229;" xml:space="preserve">
<style type="text/css">
	.st0{clip-path:url(#SVGID_2_);fill:none;stroke:#E5007E;stroke-width:5;stroke-miterlimit:10;}
	.st1{clip-path:url(#SVGID_4_);}
	.st2{clip-path:url(#SVGID_8_);}
	.st3{fill:#0165A4;}
</style>
<g>
	<defs>
		<rect id="SVGID_1_" x="-639" y="-616" width="1400" height="1469"/>
	</defs>
	<clipPath id="SVGID_2_">
		<use xlink:href="#SVGID_1_" style="overflow:visible;"/>
	</clipPath>
</g>
<g>
	<defs>
		<rect id="SVGID_3_" x="-697" y="-644" width="1400" height="1469"/>
	</defs>
	<clipPath id="SVGID_4_">
		<use xlink:href="#SVGID_3_" style="overflow:visible;"/>
	</clipPath>
</g>
<g>
	<defs>
		<rect id="SVGID_7_" x="-584" y="-669" width="1400" height="1469"/>
	</defs>
	<clipPath id="SVGID_6_">
		<use xlink:href="#SVGID_7_" style="overflow:visible;"/>
	</clipPath>
</g>
<path class="st3" d="M132,184.4c-20.8,10.9-41.7,21.9-62.5,32.8c0.5,1.7,1,3.5,1.6,5.2c5.2-0.8,10.9-0.7,15.6-2.7  c14.2-5.9,28.2-12.3,42.1-19.1c1.1-0.5,2.1-1,3.2-1.6V184.4z"/>
<path class="st3" d="M132,142.4c-23.5,12.6-46.9,25.3-70.3,38c-5.7,3.1-10.6,7.7-18.1,13.2c8.9,2.5,45.6-12.2,88.4-32.8V142.4z"/>
<path class="st3" d="M132,98.2c-35.3,19.8-70.6,39.5-105.9,59.3c0.7,1.9,1.5,3.8,2.2,5.8c11.3-2.9,23.5-3.9,33.7-9  c18-8.9,34.6-20.6,52.2-30.5c5.9-3.3,11.8-6.6,17.8-9.9V98.2z"/>
<path class="st3" d="M132,56.2C95.2,77.5,58.5,99,22.1,120.8c-6.7,4-11.4,11.5-17,17.3c1.9,1.7,3.9,3.3,5.8,5  C51.3,120.6,91.6,98,132,75.4V56.2z"/>
<path class="st3" d="M132,18.7C71.8,52.5,3.9,96.8-1.9,110.3c10.3-3,19-3.7,25.8-7.7C60,81.1,96,59.5,132,37.7V18.7z"/>
</svg>